# Blender v2.79 (sub 0) OBJ File: 'FiatUno.blend'
# www.blender.org
mtllib FiatUno_Collider.mtl
o FiatCollider_Cube
v -1.000000 0.000000 0.536451
v -0.734290 1.818107 0.536451
v -1.000000 0.000000 -2.335533
v -0.734290 1.818107 -1.880306
v 1.000000 0.000000 0.536451
v 0.734290 1.818107 0.536451
v 1.000000 0.000000 -2.335533
v 0.734290 1.818107 -1.880306
v -1.000000 1.198752 0.536451
v -1.000000 1.198752 -2.335533
v 1.000000 1.198752 -2.335533
v 1.000000 1.198752 0.536451
v -1.000000 0.000000 1.228909
v -0.958333 1.273117 1.209675
v 1.000000 0.000000 1.228909
v 0.958333 1.273117 1.209675
v -1.000000 1.102577 1.203263
v 1.000000 1.102577 1.203263
v -1.000000 0.000000 2.652296
v -1.000000 0.920476 2.492004
v 1.000000 0.000000 2.652296
v 1.000000 0.920476 2.492004
v -1.000000 0.589645 2.652296
v 1.000000 0.589645 2.652296
vn -0.9190 0.3943 0.0000
vn 0.0000 0.5922 -0.8058
vn 0.9190 0.3943 0.0000
vn -0.9318 0.3625 0.0176
vn 0.0000 -1.0000 0.0000
vn 0.0000 1.0000 0.0000
vn -1.0000 0.0000 0.0000
vn 1.0000 0.0000 0.0000
vn 0.0000 0.0000 -1.0000
vn 0.0000 0.9642 0.2652
vn 0.9962 0.0865 0.0122
vn 0.9318 0.3625 0.0176
vn 0.0000 0.7772 0.6292
vn 0.0000 0.4360 0.8999
vn 0.0000 0.0000 1.0000
vn -0.9962 0.0865 0.0122
usemtl None
s off
f 9//1 2//1 4//1 10//1
f 10//2 4//2 8//2 11//2
f 11//3 8//3 6//3 12//3
f 2//4 9//4 17//4 14//4
f 3//5 7//5 5//5 1//5
f 8//6 4//6 2//6 6//6
f 9//7 1//7 13//7 17//7
f 7//8 11//8 12//8 5//8
f 3//9 10//9 11//9 7//9
f 1//7 9//7 10//7 3//7
f 16//10 14//10 20//10 22//10
f 18//11 16//11 22//11 24//11
f 1//5 5//5 15//5 13//5
f 12//12 6//12 16//12 18//12
f 6//13 2//13 14//13 16//13
f 5//8 12//8 18//8 15//8
f 24//14 22//14 20//14 23//14
f 21//15 24//15 23//15 19//15
f 15//8 18//8 24//8 21//8
f 17//7 13//7 19//7 23//7
f 13//5 15//5 21//5 19//5
f 14//16 17//16 23//16 20//16
