# Blender v2.79 (sub 0) OBJ File: 'Mustang.blend'
# www.blender.org
mtllib Mustang_Collider.mtl
o Cube
v -1.392639 0.439649 3.209273
v -1.258097 1.244469 3.209273
v -1.392639 0.439649 -3.625775
v -1.258097 1.280686 -3.625775
v 1.392639 0.439649 3.209273
v 1.258097 1.244469 3.209273
v 1.392639 0.439649 -3.625775
v 1.258097 1.280686 -3.625775
v -1.392639 0.439649 -2.145911
v -1.392639 0.439649 -0.065918
v -1.392639 0.439649 0.837002
v -1.258097 1.416502 0.837002
v -0.828381 2.023147 -0.065919
v -1.107416 1.597590 -2.145911
v 1.392639 0.439649 0.837002
v 1.392639 0.439649 -0.065919
v 1.392639 0.439649 -2.145911
v 1.107416 1.597590 -2.145911
v 0.828381 2.023147 -0.065918
v 1.258097 1.416502 0.837002
vn -0.9783 0.2054 0.0278
vn 0.0000 0.0000 -1.0000
vn 0.9888 0.1493 0.0054
vn 0.0000 0.0000 1.0000
vn 0.0000 -1.0000 0.0000
vn 0.0000 0.9974 0.0723
vn 0.0000 0.9778 -0.2094
vn 0.0000 0.9797 -0.2004
vn -0.0000 0.8301 0.5577
vn 0.9783 0.2054 0.0278
vn 0.9546 0.2958 0.0338
vn 0.9553 0.2607 -0.1397
vn -0.9888 0.1493 0.0054
vn -0.9553 0.2607 -0.1397
vn -0.9546 0.2958 0.0338
usemtl None
s off
f 9//1 14//1 4//1 3//1
f 3//2 4//2 8//2 7//2
f 15//3 20//3 6//3 5//3
f 5//4 6//4 2//4 1//4
f 11//5 15//5 5//5 1//5
f 20//6 12//6 2//6 6//6
f 8//7 4//7 14//7 18//7
f 18//8 14//8 13//8 19//8
f 19//9 13//9 12//9 20//9
f 3//5 7//5 17//5 9//5
f 9//5 17//5 16//5 10//5
f 10//5 16//5 15//5 11//5
f 7//10 8//10 18//10 17//10
f 17//11 18//11 19//11 16//11
f 16//12 19//12 20//12 15//12
f 1//13 2//13 12//13 11//13
f 11//14 12//14 13//14 10//14
f 10//15 13//15 14//15 9//15
