# Blender v2.79 (sub 0) OBJ File: 'TrainPlatform.blend'
# www.blender.org
mtllib TrainEngine.mtl
o TrainCarrage.001_Cube.006
v 1.794429 4.657657 7.339839
v 2.000000 4.179000 8.542640
v 2.000000 4.179001 6.164145
v 1.794429 4.657657 6.164146
v 2.000000 0.083837 10.240712
v 1.710328 0.083837 10.557337
v 0.000000 0.083837 10.557337
v 0.000000 0.083838 6.164145
v 2.000000 0.083838 6.164145
v 1.710328 1.998459 10.415831
v 0.000000 1.998459 10.415831
v 0.000000 4.657657 7.656463
v 1.504757 4.657657 7.656463
v 0.000000 4.657657 6.164146
v 2.000000 1.998459 10.099206
v 2.000000 1.998460 6.164145
v 1.710328 4.179000 8.859264
v 0.000000 4.179000 8.859264
v 0.000000 4.179004 -10.557336
v 0.000000 4.657660 -10.557336
v 1.794429 4.657660 -10.557336
v 2.000000 4.179004 -10.557336
v 0.000000 0.083841 -10.557337
v 0.000000 1.998463 -10.557337
v 2.000000 1.998463 -10.557337
v 2.000000 0.083841 -10.557337
v 2.000000 1.998461 2.510712
v 2.000000 0.083839 2.510712
v 0.000000 0.083839 2.510712
v 1.794429 4.657658 2.510713
v 2.000000 4.179001 2.510713
v 1.891905 4.179001 6.164145
v 1.891905 4.179001 2.510713
v 0.000000 4.657658 2.510713
v 0.000000 4.657659 -2.337111
v 1.794429 4.657659 -2.337111
v 2.000000 4.179002 -2.337111
v 2.000000 1.998461 -2.337112
v 2.000000 0.083839 -2.337112
v 0.000000 0.083839 -2.337112
v 2.000000 1.998462 -7.465971
v 2.000000 0.083840 -7.465971
v 0.000000 0.083840 -7.465971
v 1.794429 4.657660 -7.465970
v 2.000000 4.179003 -7.465971
v 1.891905 1.998460 6.164145
v 0.000000 4.657660 -7.465970
v 1.891905 1.998461 2.510712
v 1.891905 4.179003 -7.465971
v 1.891905 4.179002 -2.337111
v 1.891905 1.998461 -2.337112
v 1.891905 1.998462 -7.465971
v -1.794429 4.657657 7.339839
v -1.794429 4.657657 6.164146
v -2.000000 4.179001 6.164145
v -2.000000 4.179000 8.542640
v -2.000000 0.083837 10.240712
v -2.000000 0.083838 6.164145
v -1.710328 0.083837 10.557337
v -1.710328 1.998459 10.415831
v -1.504757 4.657657 7.656463
v -2.000000 1.998460 6.164145
v -2.000000 1.998459 10.099206
v -1.710328 4.179000 8.859264
v -2.000000 4.179004 -10.557336
v -1.794429 4.657660 -10.557336
v -2.000000 0.083841 -10.557337
v -2.000000 1.998463 -10.557337
v -2.000000 1.998461 2.510712
v -2.000000 0.083839 2.510712
v -1.794429 4.657658 2.510713
v -2.000000 4.179001 2.510713
v -1.891905 4.179001 2.510713
v -1.891905 4.179001 6.164145
v -1.794429 4.657659 -2.337111
v -2.000000 4.179002 -2.337111
v -2.000000 1.998461 -2.337112
v -2.000000 0.083839 -2.337112
v -2.000000 1.998462 -7.465971
v -2.000000 0.083840 -7.465971
v -1.794429 4.657660 -7.465970
v -2.000000 4.179003 -7.465971
v -1.891905 1.998460 6.164145
v -1.891905 1.998461 2.510712
v -1.891905 4.179003 -7.465971
v -1.891905 1.998462 -7.465971
v -1.891905 1.998461 -2.337112
v -1.891905 4.179002 -2.337111
v 0.000000 4.179000 8.643075
v -1.710328 4.179000 8.643075
v 1.710328 1.998459 10.199640
v 1.710328 4.179000 8.643075
v 0.000000 1.998459 10.199640
v -1.710328 1.998459 10.199640
v 1.282746 0.562493 10.521960
v 1.282746 1.519804 10.451207
v 0.427582 1.519804 10.451207
v 0.427582 0.562493 10.521960
v -0.427582 0.562493 10.521960
v -0.427582 1.519804 10.451207
v -1.282746 1.519804 10.451207
v -1.282746 0.562493 10.521960
v 1.282746 0.562493 10.415445
v 1.282746 1.519804 10.344692
v 0.427582 1.519804 10.344692
v 0.427582 0.562493 10.415445
v -0.427582 0.562493 10.415445
v -0.427582 1.519804 10.344692
v -1.282746 1.519804 10.344692
v -1.282746 0.562493 10.415445
vn 0.9188 0.3946 0.0000
vn 0.0000 -1.0000 -0.0000
vn 0.0000 0.0737 0.9973
vn 0.2829 0.3625 0.8880
vn 0.3208 -0.2386 0.9166
vn 0.0000 1.0000 0.0000
vn 1.0000 0.0000 0.0000
vn -0.8127 -0.5827 0.0000
vn -0.5178 -0.8555 0.0000
vn 0.0000 0.9291 0.3697
vn 0.0000 0.0000 -1.0000
vn 0.0000 0.0000 1.0000
vn 0.7369 0.0498 0.6742
vn 0.6647 0.4341 0.6081
vn 0.3282 0.8956 0.3003
vn -0.9188 0.3946 0.0000
vn -0.3208 -0.2386 0.9166
vn -0.2829 0.3625 0.8880
vn -1.0000 0.0000 0.0000
vn -0.5178 0.8555 0.0000
vn -0.8127 0.5827 0.0000
vn -0.7369 0.0498 0.6742
vn -0.6647 0.4341 0.6081
vn -0.3282 0.8956 0.3003
vn 0.0000 0.5810 0.8139
vn 0.8127 -0.5827 0.0000
vn 0.5178 -0.8555 0.0000
vn 0.5178 0.8555 0.0000
vn 0.8127 0.5827 0.0000
vn 0.5813 0.5962 0.5537
vn 0.5736 -0.5575 0.6002
vn -0.5736 -0.5575 0.6002
vn -0.5813 0.5962 0.5537
vn 0.6899 0.7239 0.0000
vn 0.7231 0.6907 0.0000
vn -0.6899 0.7239 0.0000
vn -0.7231 -0.6907 0.0000
vn -0.6899 -0.7239 0.0000
vn -0.7231 0.6907 0.0000
vn 0.7231 -0.6907 0.0000
vn 0.6899 -0.7239 0.0000
usemtl Plain
s 1
f 1//1 2//1 3//1 4//1
f 5//2 6//2 7//2 8//2 9//2
f 11//3 7//3 98//4 97//5
f 12//6 13//6 1//6 4//6 14//6
f 2//7 15//7 16//7 3//7
f 17//8 18//2 89//2 92//9
f 18//10 17//10 13//10 12//10
f 19//11 20//11 21//11 22//11
f 23//11 24//11 25//11 26//11
f 24//11 19//11 22//11 25//11
f 27//7 16//7 9//7 28//7
f 28//2 9//2 8//2 29//2
f 30//1 4//1 3//1 31//1
f 3//2 32//2 33//2 31//2
f 34//6 14//6 4//6 30//6
f 35//6 34//6 30//6 36//6
f 37//7 31//7 27//7 38//7
f 36//1 30//1 31//1 37//1
f 39//2 28//2 29//2 40//2
f 38//7 27//7 28//7 39//7
f 41//7 38//7 39//7 42//7
f 42//2 39//2 40//2 43//2
f 44//1 36//1 37//1 45//1
f 16//11 46//11 32//11 3//11
f 47//6 35//6 36//6 44//6
f 20//6 47//6 44//6 21//6
f 22//7 45//7 41//7 25//7
f 21//1 44//1 45//1 22//1
f 26//2 42//2 43//2 23//2
f 25//7 41//7 42//7 26//7
f 33//7 32//7 46//7 48//7
f 49//7 50//7 51//7 52//7
f 41//6 52//6 51//6 38//6
f 38//11 51//11 50//11 37//11
f 45//12 49//12 52//12 41//12
f 31//12 33//12 48//12 27//12
f 37//2 50//2 49//2 45//2
f 27//6 48//6 46//6 16//6
f 10//13 6//13 5//13 15//13
f 17//14 10//14 15//14 2//14
f 13//15 17//15 2//15 1//15
f 15//7 5//7 9//7 16//7
f 53//16 54//16 55//16 56//16
f 57//2 58//2 8//2 7//2 59//2
f 7//3 11//3 100//17 99//18
f 12//6 14//6 54//6 53//6 61//6
f 56//19 55//19 62//19 63//19
f 10//20 17//8 92//9 91//21
f 18//10 12//10 61//10 64//10
f 19//11 65//11 66//11 20//11
f 23//11 67//11 68//11 24//11
f 24//11 68//11 65//11 19//11
f 69//19 70//19 58//19 62//19
f 70//2 29//2 8//2 58//2
f 71//16 72//16 55//16 54//16
f 55//2 72//2 73//2 74//2
f 34//6 71//6 54//6 14//6
f 35//6 75//6 71//6 34//6
f 76//19 77//19 69//19 72//19
f 75//16 76//16 72//16 71//16
f 78//2 40//2 29//2 70//2
f 77//19 78//19 70//19 69//19
f 79//19 80//19 78//19 77//19
f 80//2 43//2 40//2 78//2
f 81//16 82//16 76//16 75//16
f 62//11 55//11 74//11 83//11
f 47//6 81//6 75//6 35//6
f 20//6 66//6 81//6 47//6
f 65//19 68//19 79//19 82//19
f 66//16 65//16 82//16 81//16
f 67//2 23//2 43//2 80//2
f 68//19 67//19 80//19 79//19
f 73//19 84//19 83//19 74//19
f 85//19 86//19 87//19 88//19
f 79//6 77//6 87//6 86//6
f 77//11 76//11 88//11 87//11
f 82//12 79//12 86//12 85//12
f 72//12 69//12 84//12 73//12
f 76//2 82//2 85//2 88//2
f 69//6 62//6 83//6 84//6
f 60//22 63//22 57//22 59//22
f 64//23 56//23 63//23 60//23
f 61//24 53//24 56//24 64//24
f 63//19 62//19 58//19 57//19
f 93//25 91//25 92//25 89//25
f 93//25 89//25 90//25 94//25
f 11//6 10//20 91//21 93//6
f 18//2 64//26 90//27 89//2
f 64//26 60//28 94//29 90//27
f 60//28 11//6 93//6 94//29
f 97//5 98//4 106//30 105//31
f 10//3 11//3 97//5 96//3
f 6//3 10//3 96//3 95//3
f 7//3 6//3 95//3 98//4
f 99//18 100//17 108//32 107//33
f 11//3 60//3 101//3 100//17
f 60//3 59//3 102//3 101//3
f 59//3 7//3 99//18 102//3
f 102//34 99//18 107//33 110//35
f 95//36 96//37 104//38 103//39
f 100//17 101//40 109//41 108//32
f 98//4 95//36 103//39 106//30
f 96//37 97//5 105//31 104//38
f 101//40 102//34 110//35 109//41
usemtl Lights
f 106//30 103//3 104//3 105//31
f 107//33 108//32 109//3 110//3
